<?xml version="1.0" standalone="no"?>
<!DOCTYPE svg PUBLIC "-//W3C//DTD SVG 20010904//EN"
 "http://www.w3.org/TR/2001/REC-SVG-20010904/DTD/svg10.dtd">
<svg version="1.0" xmlns="http://www.w3.org/2000/svg"
 width="1902.000000pt" height="1164.000000pt" viewBox="0 0 1902.000000 1164.000000"
 preserveAspectRatio="xMidYMid meet">

<g transform="translate(0.000000,1164.000000) scale(0.100000,-0.100000)"
fill="#ffffff" stroke="none">
<path d="M9050 11103 c-26 -6 -202 -202 -265 -293 -33 -47 -82 -110 -110 -141
-29 -31 -67 -83 -85 -115 -60 -107 -127 -199 -204 -281 -50 -53 -96 -116 -136
-188 -34 -59 -112 -182 -173 -274 -62 -91 -156 -233 -209 -316 -53 -82 -128
-188 -166 -236 -84 -103 -115 -151 -132 -204 -7 -22 -22 -53 -35 -70 -12 -16
-158 -239 -325 -495 -167 -256 -378 -577 -470 -715 -92 -137 -187 -281 -210
-320 -61 -100 -144 -214 -306 -420 -215 -274 -328 -427 -411 -560 -76 -120
-262 -407 -268 -413 -4 -5 -126 62 -180 98 -22 15 -68 42 -102 60 -88 46 -155
121 -204 227 -22 49 -69 147 -104 218 -69 140 -206 478 -249 614 -31 96 -50
135 -106 222 -21 33 -44 77 -51 97 -29 91 -109 225 -261 437 -275 386 -395
492 -763 675 -276 137 -500 222 -683 259 -148 30 -627 -9 -784 -65 -40 -14
-154 -65 -253 -114 -99 -48 -209 -100 -244 -115 -74 -31 -128 -66 -290 -192
-133 -103 -162 -136 -141 -158 13 -12 33 -9 160 30 80 24 200 64 268 89 244
91 379 112 662 104 193 -6 264 -18 545 -94 119 -33 334 -139 408 -203 32 -28
89 -67 127 -87 39 -20 88 -57 112 -83 66 -73 141 -167 160 -202 9 -18 28 -44
42 -58 57 -60 286 -512 392 -775 36 -88 69 -165 74 -171 13 -16 93 -207 135
-321 63 -171 169 -399 226 -484 88 -130 299 -389 376 -459 37 -35 105 -90 151
-123 45 -33 82 -64 82 -68 0 -22 -511 -786 -598 -895 -87 -108 -237 -334 -287
-435 -25 -50 -102 -173 -170 -275 -195 -287 -369 -560 -732 -1150 -190 -308
-413 -719 -413 -759 0 -19 72 -84 112 -100 21 -9 222 -61 449 -116 226 -55
454 -112 506 -125 52 -14 115 -25 140 -25 47 0 343 -89 619 -186 87 -30 210
-68 274 -84 63 -17 175 -45 247 -64 73 -19 189 -42 258 -51 128 -16 172 -28
241 -63 21 -11 118 -34 214 -52 264 -48 340 -66 452 -109 137 -52 228 -76 653
-171 488 -109 644 -149 957 -241 346 -102 618 -188 951 -301 320 -108 329
-109 512 -39 61 23 173 58 250 77 174 43 378 102 555 159 74 24 205 62 290 84
156 41 280 79 318 100 12 6 233 70 492 141 258 72 568 162 687 200 281 91 408
125 568 150 175 28 231 42 409 100 83 27 257 76 387 109 129 33 314 82 410
110 96 27 368 102 604 165 557 149 896 250 912 272 7 10 13 28 13 41 0 34
-167 308 -341 558 -84 121 -208 304 -276 407 -126 193 -323 479 -351 511 -16
18 -13 18 68 12 97 -8 349 8 490 32 137 22 319 74 488 139 266 102 392 169
517 273 28 23 131 83 230 132 232 117 237 120 275 179 50 79 84 178 146 426
67 271 69 309 24 391 -62 112 -61 109 -50 139 18 48 47 70 141 109 84 35 129
70 129 100 0 21 -37 24 -95 9 -42 -11 -60 -12 -76 -3 -20 10 -21 16 -15 86 7
80 -1 103 -35 103 -32 0 -49 -43 -63 -163 -15 -124 -30 -160 -81 -187 -24 -13
-33 -12 -90 8 -107 37 -179 26 -407 -62 -147 -57 -190 -79 -261 -134 -71 -56
-122 -132 -158 -236 -24 -69 -28 -95 -28 -195 0 -90 -5 -138 -25 -216 -13 -55
-28 -101 -34 -103 -5 -1 -42 -23 -83 -47 -124 -75 -347 -138 -481 -137 -192 2
-539 84 -784 186 -152 63 -477 239 -547 297 -33 27 -218 329 -332 544 -62 114
-88 153 -169 244 -36 41 -66 77 -66 81 0 4 41 42 91 85 105 90 234 231 312
343 54 77 261 310 491 556 140 149 374 339 481 391 187 90 482 148 755 149
157 0 175 -2 365 -42 297 -63 344 -90 509 -306 157 -203 209 -247 351 -292
136 -44 243 -43 463 1 l183 37 40 -28 c48 -33 69 -62 94 -129 25 -67 58 -100
85 -85 30 16 42 57 35 112 -10 69 -2 82 65 111 67 29 87 54 66 83 -13 17 -18
18 -63 5 -157 -45 -137 -46 -221 16 -45 33 -53 58 -63 193 -14 197 -54 301
-154 409 -48 52 -78 73 -150 107 -132 63 -215 82 -429 100 l-189 17 -72 48
c-79 54 -287 152 -410 193 -84 28 -224 56 -284 56 -20 0 -72 8 -116 17 -66 14
-129 16 -360 15 -307 -3 -370 -10 -625 -68 -304 -70 -437 -132 -640 -299 -41
-34 -110 -85 -153 -114 -99 -66 -379 -346 -554 -552 -130 -154 -208 -226 -337
-313 -75 -50 -86 -54 -86 -32 0 8 -20 45 -45 82 -25 37 -44 68 -43 69 68 47
224 174 240 194 13 15 67 79 122 142 115 134 141 181 191 349 20 69 52 166 71
217 19 51 53 156 76 235 58 205 248 632 338 762 106 155 331 283 623 356 88
22 366 100 642 180 487 140 676 180 788 168 31 -4 79 -24 145 -62 93 -53 105
-57 187 -64 122 -11 199 1 318 48 110 45 150 66 212 115 22 17 60 43 86 58
100 57 260 190 284 237 8 15 19 58 25 96 15 96 16 98 54 117 65 31 103 32 144
5 96 -64 166 -85 178 -53 11 29 -6 62 -46 89 -66 44 -72 58 -53 148 17 88 13
111 -19 106 -16 -2 -34 -24 -64 -78 -46 -85 -69 -99 -164 -99 -64 -1 -61 -2
-121 69 -78 92 -164 128 -374 154 -312 40 -544 39 -636 -1 -59 -26 -139 -110
-200 -208 -87 -140 -97 -147 -201 -144 -43 1 -96 -5 -128 -14 -91 -27 -186
-38 -385 -47 -225 -9 -507 -41 -660 -75 -60 -13 -164 -33 -230 -45 -299 -52
-460 -122 -654 -286 -187 -156 -301 -303 -527 -680 -81 -136 -93 -166 -124
-314 -51 -250 -95 -372 -226 -632 -74 -145 -75 -147 -190 -257 -63 -61 -119
-111 -123 -111 -5 0 -11 18 -15 39 -6 39 -41 94 -147 233 -30 40 -172 246
-314 458 -142 212 -299 439 -350 505 -120 158 -498 696 -598 855 -127 200
-170 261 -362 520 -292 394 -474 652 -744 1052 -73 109 -152 219 -175 245 -23
27 -64 81 -89 121 -34 53 -57 77 -82 88 -19 8 -36 13 -37 13 -2 -1 -10 -3 -18
-6z m370 -911 c99 -169 121 -202 180 -282 163 -216 816 -1170 1338 -1950 215
-322 474 -706 576 -853 102 -146 186 -270 186 -275 0 -5 -26 -19 -57 -30 -32
-12 -137 -50 -233 -86 -96 -35 -193 -69 -215 -75 -117 -31 -347 -71 -444 -77
-156 -10 -146 10 -146 -288 0 -203 3 -251 18 -305 24 -85 76 -190 101 -203 26
-14 114 -5 317 32 151 27 179 29 354 26 257 -5 550 11 650 34 44 10 107 24
140 31 143 28 354 118 485 205 68 46 296 272 463 461 93 105 260 263 446 423
112 96 237 178 396 257 146 74 215 92 535 137 272 39 400 47 505 32 50 -7 96
-16 103 -20 7 -4 12 -22 12 -40 0 -19 7 -39 16 -46 38 -33 36 -48 -11 -75 -48
-28 -57 -52 -29 -79 14 -14 20 -13 64 9 27 14 52 25 55 25 2 0 16 -18 31 -39
28 -43 45 -54 69 -45 37 15 34 59 -7 116 -10 15 -8 22 16 47 24 25 26 31 14
50 -16 25 -20 26 -65 4 l-36 -17 -23 30 c-13 16 -24 34 -24 41 0 18 34 25 66
12 16 -6 72 -12 124 -14 104 -4 196 -27 291 -76 31 -15 97 -45 145 -65 49 -20
136 -64 194 -98 l105 -61 155 0 c168 -1 223 -11 258 -48 23 -24 23 -24 4 -68
-41 -96 -33 -141 39 -223 30 -35 119 -86 149 -86 9 0 38 14 64 32 37 24 52 29
65 21 48 -30 75 -220 39 -275 -25 -38 -150 -70 -213 -54 -27 7 -27 9 -22 59
15 120 -90 218 -213 201 -37 -5 -54 -16 -97 -59 -35 -36 -54 -65 -59 -89 -7
-43 -17 -51 -43 -37 -30 17 -143 160 -176 225 -19 37 -50 76 -84 105 -30 25
-68 59 -85 75 -89 84 -309 143 -626 166 -398 29 -721 -9 -949 -112 -69 -30
-201 -125 -330 -237 -157 -135 -294 -267 -332 -320 -22 -30 -75 -93 -119 -140
-86 -93 -111 -121 -338 -396 -180 -217 -253 -287 -375 -359 -101 -59 -336
-148 -527 -199 -113 -30 -119 -31 -405 -34 -270 -4 -302 -3 -465 21 -236 34
-498 44 -600 22 -82 -17 -100 -32 -100 -83 0 -27 7 -38 40 -62 l40 -29 202 -6
c112 -3 349 -8 528 -10 278 -4 339 -8 424 -25 54 -12 125 -21 158 -21 32 0 94
-7 136 -16 101 -21 316 -90 369 -119 23 -13 66 -31 95 -40 133 -43 293 -143
458 -284 30 -26 82 -66 115 -88 103 -69 375 -234 434 -263 81 -40 252 -107
308 -121 26 -7 102 -33 168 -60 66 -26 172 -62 235 -79 63 -17 126 -38 139
-47 l23 -15 -53 -32 c-34 -20 -58 -42 -64 -59 -8 -25 -5 -32 31 -68 55 -55
110 -64 150 -24 24 24 26 31 20 78 -3 29 -9 65 -12 81 -7 28 -6 29 22 24 16
-3 103 -2 194 1 158 7 170 9 286 48 118 40 261 105 317 145 19 14 40 19 72 17
59 -4 70 8 56 57 -26 94 -6 146 53 142 78 -5 74 34 -14 152 -72 96 -83 128
-56 165 13 18 17 17 93 -33 82 -54 103 -61 121 -40 27 35 23 55 -20 94 -101
95 -108 102 -102 118 10 26 37 19 98 -25 99 -71 200 -64 287 20 60 58 76 110
60 192 -6 31 -9 63 -5 72 6 16 51 41 96 52 35 9 126 -39 199 -104 l53 -48 -18
-119 c-9 -65 -21 -123 -26 -128 -5 -5 -51 -10 -102 -10 -82 -1 -97 -4 -126
-25 -46 -35 -72 -95 -72 -165 0 -54 3 -61 34 -90 37 -36 93 -56 153 -56 22 0
42 -3 46 -6 14 -14 -62 -134 -85 -134 -5 0 -31 18 -59 40 -28 22 -56 40 -62
40 -45 -1 -53 -66 -14 -115 15 -18 27 -36 27 -38 0 -8 -117 -57 -135 -57 -9 0
-35 15 -58 33 -56 45 -72 49 -113 32 -38 -16 -38 -15 -23 -68 9 -32 7 -43 -11
-72 -25 -40 -68 -69 -128 -85 -24 -6 -66 -29 -95 -51 -89 -68 -297 -164 -467
-215 -85 -25 -175 -53 -200 -60 -73 -24 -359 -46 -578 -45 -166 1 -220 5 -300
22 -148 32 -428 114 -512 150 -145 61 -456 218 -520 261 -74 50 -514 315 -575
345 -91 46 -199 75 -438 118 -139 24 -290 49 -337 54 -254 31 -642 42 -774 22
-79 -11 -106 -31 -106 -76 0 -54 26 -59 288 -52 269 7 467 -3 692 -37 340 -50
552 -117 723 -230 45 -29 165 -102 267 -161 102 -59 203 -120 225 -135 62 -41
338 -173 465 -223 152 -59 470 -147 531 -147 16 0 19 -7 19 -53 0 -64 22 -141
63 -222 16 -33 41 -91 54 -130 29 -85 43 -107 209 -321 221 -284 374 -525 374
-589 0 -51 -130 -94 -790 -260 -377 -94 -478 -121 -710 -192 -63 -19 -261 -72
-440 -118 -179 -47 -377 -100 -440 -118 -372 -111 -532 -155 -861 -241 -262
-69 -384 -96 -425 -96 -46 0 -97 -13 -234 -61 -96 -33 -242 -76 -325 -95 -82
-19 -238 -60 -346 -90 -108 -30 -289 -74 -403 -98 l-207 -42 -24 28 c-13 15
-28 42 -33 60 -10 31 -25 498 -37 1138 -6 334 -3 351 60 362 80 14 168 8 225
-16 l55 -22 7 -65 c12 -104 11 -299 0 -368 -6 -36 -14 -147 -18 -247 -6 -154
-5 -190 9 -226 8 -24 18 -59 22 -78 4 -19 11 -50 17 -69 l10 -34 108 6 c91 5
126 12 226 46 65 23 181 55 259 71 328 68 418 91 569 145 178 63 204 77 213
113 4 19 0 29 -18 43 -54 41 -62 40 -424 -75 -250 -80 -336 -104 -475 -130
-226 -44 -279 -51 -291 -39 -15 15 -48 179 -50 250 -3 113 21 598 31 634 19
69 34 73 310 81 258 8 322 15 348 42 25 25 4 48 -64 70 -49 16 -103 20 -309
26 -233 6 -305 15 -305 37 0 5 -8 46 -16 93 -11 58 -18 178 -23 373 l-6 289
-33 29 c-39 35 -57 34 -86 -4 -20 -28 -21 -38 -21 -410 l0 -382 -47 -9 c-38
-7 -66 -5 -139 13 -117 29 -136 38 -144 69 -16 64 -27 521 -30 1197 l-3 740
-26 148 c-26 148 -26 148 -26 710 0 309 -5 766 -10 1015 -5 250 -14 902 -20
1450 -6 549 -14 1327 -20 1731 -5 463 -5 741 1 753 5 9 15 15 23 12 7 -3 41
-53 76 -112z m-517 -49 c4 -87 7 -452 7 -811 0 -458 4 -682 12 -750 12 -93 17
-1025 7 -1452 -2 -104 3 -229 13 -340 19 -202 35 -1443 29 -2265 -2 -305 1
-542 9 -650 17 -245 15 -564 -4 -720 -13 -103 -15 -184 -10 -390 3 -145 2
-266 -3 -273 -6 -8 -63 -16 -169 -23 -178 -13 -234 -5 -256 34 -10 16 -13 90
-13 277 0 197 -3 261 -14 280 -21 39 -61 90 -70 90 -5 0 -19 -24 -32 -53 -23
-50 -24 -64 -29 -338 -4 -222 -8 -290 -19 -302 -18 -23 -154 -23 -363 0 -147
16 -158 16 -182 0 -29 -19 -82 -94 -73 -103 3 -3 36 -17 74 -31 59 -22 96 -27
296 -38 281 -15 272 -10 263 -135 -4 -48 0 -177 8 -294 15 -211 14 -243 -15
-428 -11 -67 -11 -68 -42 -68 -18 0 -87 16 -154 34 -66 19 -161 42 -210 51
-96 18 -139 30 -508 145 -137 43 -330 99 -428 126 -148 39 -182 45 -202 36
-14 -7 -25 -18 -25 -26 0 -7 33 -45 73 -83 68 -65 80 -72 154 -91 43 -12 85
-22 91 -22 6 0 147 -41 312 -90 165 -50 388 -111 496 -136 107 -25 232 -57
277 -71 185 -57 191 -58 236 -45 22 7 52 23 66 35 l25 22 9 502 c7 438 11 506
25 528 19 29 24 30 186 46 136 13 201 4 215 -29 10 -21 20 -1438 11 -1485 -3
-19 -21 -51 -39 -72 l-34 -39 -197 43 c-108 23 -389 89 -624 147 -235 58 -539
132 -676 165 -137 32 -292 72 -345 88 -110 34 -312 85 -516 131 -90 20 -165
44 -210 66 -77 38 -388 118 -685 174 -309 60 -510 107 -1427 339 -566 143
-747 193 -796 218 -38 19 -32 42 38 153 30 47 68 119 86 160 57 135 348 603
661 1064 115 169 239 363 275 430 80 147 162 277 355 564 80 119 176 271 213
337 38 68 89 143 118 175 29 30 88 107 131 170 l78 116 57 -13 c118 -26 219
-45 306 -58 50 -7 126 -20 170 -28 155 -30 354 -47 730 -62 557 -22 609 -22
629 -6 29 24 17 72 -24 96 -33 19 -49 20 -230 17 -203 -3 -637 28 -692 49 -38
15 -40 28 -17 111 27 100 56 171 100 248 73 127 62 125 589 125 l415 0 33 23
c49 36 44 66 -15 89 -60 22 -164 23 -638 3 -549 -23 -619 -19 -832 52 l-122
40 81 76 c59 56 123 136 239 299 86 121 189 262 228 312 39 50 110 155 158
233 47 79 134 215 193 303 59 88 147 225 195 305 48 80 138 219 200 310 112
165 363 554 565 875 59 94 141 218 183 277 42 58 122 178 178 265 151 233 484
722 574 843 44 58 98 136 122 174 44 71 83 106 119 106 20 0 21 -6 27 -157z
m7162 -488 c33 -32 33 -78 1 -110 -28 -28 -47 -25 -88 13 -50 46 -28 122 34
122 17 0 39 -10 53 -25z m-251 -37 c19 -66 66 -141 102 -165 38 -25 169 -25
207 0 41 27 75 79 90 137 12 44 20 57 43 67 38 16 87 16 149 -1 105 -28 163
-78 195 -170 21 -61 26 -131 12 -154 -28 -43 -177 -183 -221 -208 l-52 -29
-20 25 c-11 14 -30 41 -42 60 -48 75 -149 110 -216 74 -48 -25 -109 -81 -127
-115 -17 -34 -18 -90 -2 -158 17 -74 5 -84 -92 -79 -67 4 -83 9 -145 46 -38
23 -107 56 -153 74 -95 36 -106 50 -137 175 -22 92 -15 112 63 187 33 32 88
99 122 151 52 80 68 96 108 114 26 11 59 20 74 21 24 0 28 -6 42 -52z m-835
-342 c6 -7 18 -51 26 -97 8 -46 22 -108 31 -137 16 -51 16 -54 -2 -72 -12 -11
-64 -28 -139 -44 -66 -15 -174 -42 -240 -61 -66 -19 -214 -59 -330 -90 -115
-31 -312 -85 -437 -121 -124 -35 -236 -64 -248 -64 -33 0 -126 65 -154 107
-37 56 -76 167 -76 216 0 34 6 48 28 68 45 42 180 96 384 153 228 64 247 68
443 100 211 35 239 37 467 45 112 5 210 9 219 9 9 1 22 -4 28 -12z m1199 -162
c51 -33 49 -102 -4 -138 -42 -28 -73 -24 -114 14 -50 47 -35 119 30 143 20 8
60 -1 88 -19z m-13463 -303 c0 -58 -4 -74 -23 -94 -23 -24 -28 -52 -13 -76 7
-11 22 -12 65 -7 55 6 58 5 91 -28 45 -45 72 -53 97 -29 16 17 18 25 9 64 -9
38 -8 46 7 57 9 7 36 31 59 53 47 47 23 49 238 -25 163 -55 181 -63 289 -126
110 -63 176 -110 176 -125 0 -13 -293 -225 -311 -225 -13 0 -193 98 -240 131
-46 32 -346 158 -490 205 -164 55 -162 52 -98 167 35 64 48 78 93 100 28 14
51 26 51 26 0 1 0 -30 0 -68z m239 7 c-4 -5 -22 -17 -42 -25 -43 -18 -79 -6
-111 37 -19 26 -19 30 -4 38 20 12 166 -35 157 -50z m10161 -223 c22 -27 72
-85 112 -127 40 -42 73 -83 73 -91 0 -20 -115 -287 -172 -402 -58 -115 -124
-283 -179 -455 -23 -74 -68 -185 -100 -246 -32 -62 -67 -143 -78 -182 -24 -80
-58 -136 -86 -140 -28 -4 -135 63 -195 121 -59 57 -110 128 -110 154 0 10 18
50 41 88 23 39 53 95 69 125 36 74 125 342 149 457 11 51 38 134 59 186 50
119 173 332 268 464 71 97 92 118 105 104 3 -3 23 -28 44 -56z m-9010 -504
c40 -51 115 -163 166 -249 51 -87 119 -197 152 -247 32 -49 76 -126 97 -170
41 -87 140 -388 140 -426 0 -20 -16 -32 -93 -73 -50 -26 -128 -72 -172 -101
-104 -68 -110 -70 -134 -39 -21 27 -33 56 -76 194 -16 52 -84 195 -174 370
-82 157 -176 339 -209 405 -33 66 -77 145 -96 175 -20 30 -36 60 -36 67 0 14
101 101 164 141 23 14 66 36 95 48 72 29 83 23 176 -95z m12599 -1222 c51 -40
22 -129 -33 -99 -24 12 -61 58 -61 76 0 18 29 44 49 44 10 0 30 -9 45 -21z
m-4607 -61 c16 -18 55 -67 85 -108 30 -41 85 -104 123 -138 l68 -64 -20 -26
c-27 -37 -153 -127 -283 -201 -87 -50 -154 -77 -361 -147 -244 -82 -349 -106
-507 -121 -51 -5 -66 -3 -82 12 -36 32 -50 107 -50 263 0 200 -10 188 207 258
95 30 223 77 285 105 62 28 161 67 220 86 58 19 135 52 170 73 78 49 105 50
145 8z m-7215 -337 c16 -41 42 -92 57 -115 48 -69 186 -193 294 -264 134 -88
522 -282 634 -317 48 -15 94 -32 101 -38 22 -17 13 -52 -30 -118 -49 -76 -81
-145 -103 -225 -26 -90 -27 -90 -142 -70 -160 28 -192 37 -323 83 -146 51
-249 105 -334 173 -86 68 -213 201 -281 295 -32 44 -90 116 -128 159 -99 113
-187 258 -187 309 0 34 171 143 320 204 71 28 83 21 122 -76z m11661 21 c24
-22 22 -67 -5 -86 -27 -19 -89 -21 -106 -4 -16 16 -15 60 1 80 31 39 72 43
110 10z m-4413 -386 c0 -8 11 -24 25 -34 34 -27 22 -33 -76 -39 -96 -7 -101 3
-26 52 57 37 77 43 77 21z m654 -929 c8 -29 33 -79 56 -110 22 -32 40 -60 40
-62 0 -2 -35 12 -79 30 -166 70 -189 89 -156 125 13 15 103 66 122 70 1 0 8
-24 17 -53z m3215 -254 c42 -24 39 -59 -8 -90 -37 -25 -65 -28 -105 -13 -46
17 -23 79 38 106 40 17 39 17 75 -3z m379 -389 c29 -20 28 -50 -4 -79 -31 -29
-56 -32 -78 -9 -24 23 -19 60 10 83 32 25 43 26 72 5z"/>
<path d="M9647 8983 c-14 -32 -15 -207 -5 -953 8 -616 24 -887 53 -926 14 -18
16 -17 50 19 l36 38 -4 132 c-3 73 -10 292 -17 487 -13 344 -14 596 -4 633 10
32 35 17 58 -36 13 -29 42 -111 65 -184 44 -138 113 -291 137 -300 22 -8 45
17 38 40 -3 11 -10 70 -13 131 -7 103 -11 119 -55 219 -26 59 -46 119 -44 132
3 23 5 24 28 12 33 -16 243 -330 322 -482 73 -140 266 -445 311 -492 33 -35
83 -45 93 -18 17 42 -64 190 -313 574 -299 461 -641 957 -681 989 -25 19 -41
14 -55 -15z"/>
<path d="M14633 7298 l-42 -42 -47 33 c-52 36 -85 36 -104 0 -14 -26 -3 -40
50 -64 22 -10 40 -25 40 -33 0 -8 -16 -29 -35 -46 -40 -37 -43 -51 -16 -66 34
-18 49 -11 82 35 18 25 38 45 45 45 7 0 25 -16 41 -37 25 -30 34 -35 56 -29
41 10 46 50 11 87 l-28 29 38 35 c38 35 39 42 8 78 -24 28 -54 20 -99 -25z"/>
<path d="M13991 7165 c-23 -20 -31 -36 -33 -68 l-3 -42 -92 -24 c-96 -24 -104
-32 -83 -72 12 -22 71 -26 128 -9 33 9 34 9 54 -41 15 -35 28 -51 45 -55 33
-9 56 13 49 48 -9 46 2 57 90 84 96 29 115 48 85 86 -17 20 -28 23 -87 23
l-69 0 -5 35 c-11 67 -30 76 -79 35z"/>
<path d="M16025 6956 c-14 -14 -22 -31 -19 -39 14 -38 180 -137 230 -137 25 0
52 20 54 40 6 43 -2 51 -110 105 -60 30 -114 55 -120 55 -6 0 -22 -11 -35 -24z"/>
<path d="M13497 6819 c-29 -17 -45 -61 -40 -109 6 -60 -10 -79 -87 -104 -70
-23 -92 -45 -74 -73 9 -14 28 -19 83 -21 71 -3 71 -3 97 -43 13 -22 31 -42 40
-46 27 -10 61 24 74 75 12 52 14 53 101 90 49 21 62 43 47 81 -8 22 -12 23
-61 18 -28 -3 -61 -7 -72 -9 -17 -3 -22 7 -36 63 -23 93 -31 102 -72 78z"/>
<path d="M12983 6268 c-4 -7 -10 -39 -14 -72 -10 -84 -31 -107 -120 -131 -81
-22 -98 -45 -60 -79 19 -17 24 -17 90 -2 38 9 72 16 74 16 2 0 12 -29 22 -65
17 -65 49 -105 82 -105 19 0 33 42 33 103 0 29 5 59 10 67 5 8 40 24 77 36 59
18 68 25 71 47 5 39 -30 58 -94 51 l-53 -7 -11 44 c-19 75 -22 84 -32 97 -13
16 -65 16 -75 0z"/>
<path d="M12384 5847 c-12 -7 -37 -32 -55 -56 -51 -66 -59 -69 -121 -43 -85
35 -108 28 -108 -33 0 -16 15 -36 45 -61 25 -20 45 -41 45 -48 0 -6 -14 -31
-30 -56 -36 -55 -37 -75 -6 -95 21 -14 31 -14 66 -4 35 11 46 21 66 60 33 66
49 73 99 44 22 -13 64 -27 92 -31 49 -6 53 -5 61 17 14 37 4 53 -55 89 l-55
34 7 45 c18 123 18 124 -1 138 -21 16 -23 16 -50 0z"/>
<path d="M11160 5691 c-16 -39 -6 -66 35 -91 45 -28 52 -53 26 -93 -56 -88
-55 -87 -27 -115 22 -23 28 -24 51 -14 15 7 44 27 66 44 l40 32 47 -18 c108
-42 113 -42 133 -17 11 13 19 36 19 51 0 22 -7 30 -40 45 -61 27 -65 42 -24
92 37 45 42 73 18 97 -23 23 -39 20 -105 -20 l-59 -37 -61 37 c-75 45 -102 46
-119 7z"/>
<path d="M11053 4960 c-91 -55 -20 -200 91 -184 31 4 49 15 73 42 54 61 38
110 -49 147 -49 20 -76 19 -115 -5z"/>
<path d="M12303 4860 c-30 -12 -45 -44 -41 -88 4 -46 52 -82 110 -82 60 0 78
14 78 60 0 91 -67 142 -147 110z"/>
<path d="M11622 4814 c-70 -36 -91 -104 -55 -178 18 -39 112 -96 157 -96 43 0
83 27 111 73 29 51 31 76 8 124 -34 73 -150 113 -221 77z"/>
<path d="M15898 4449 c-44 -23 -58 -45 -58 -93 0 -25 7 -40 26 -55 110 -87
262 42 165 140 -35 35 -78 38 -133 8z"/>
<path d="M12639 4411 c-56 -56 -29 -151 43 -151 36 0 83 24 92 45 20 53 -5
104 -60 125 -37 14 -43 13 -75 -19z"/>
<path d="M13303 4300 c-36 -15 -46 -45 -33 -100 9 -38 23 -59 64 -98 68 -64
138 -86 200 -63 27 11 76 86 76 117 0 36 -38 81 -98 118 -53 32 -67 36 -123
35 -35 0 -74 -4 -86 -9z"/>
<path d="M13873 3832 c-21 -14 -33 -60 -22 -85 14 -32 60 -57 101 -57 78 0
102 107 31 139 -27 13 -92 14 -110 3z"/>
<path d="M15151 3821 c-31 -31 -27 -69 7 -82 59 -23 125 31 96 79 -17 26 -78
28 -103 3z"/>
<path d="M13530 3165 c0 -39 132 -305 196 -396 60 -85 134 -242 134 -283 0
-21 -5 -24 -62 -30 -35 -3 -256 -8 -493 -11 -236 -3 -510 -11 -607 -17 l-177
-12 -6 -27 c-7 -30 13 -87 38 -107 20 -17 63 -18 167 -4 46 7 152 12 235 12
82 0 215 7 295 15 194 19 200 19 200 -4 0 -22 -73 -50 -293 -111 -280 -77
-611 -212 -637 -260 -9 -17 -7 -26 12 -50 13 -16 26 -29 29 -29 3 -1 123 39
266 88 143 49 318 104 389 121 71 17 233 62 359 100 127 38 266 78 310 90 44
11 107 35 140 53 56 30 60 35 63 71 2 22 -4 59 -13 83 -22 58 -416 663 -446
685 -13 10 -41 24 -61 33 -38 15 -38 15 -38 -10z"/>
<path d="M8382 8959 c-32 -23 -54 -52 -87 -117 -25 -48 -73 -119 -108 -159
-68 -79 -176 -247 -492 -768 -113 -187 -223 -360 -244 -385 -21 -25 -52 -68
-69 -96 -31 -50 -96 -194 -90 -199 2 -1 31 -5 64 -9 l62 -7 128 198 c70 109
199 315 287 458 219 358 318 502 338 489 25 -15 -5 -207 -66 -416 -79 -274
-83 -308 -35 -308 55 0 137 176 175 373 82 421 116 489 129 255 3 -68 9 -168
12 -223 6 -87 4 -105 -12 -135 -17 -31 -19 -58 -18 -255 1 -299 27 -455 75
-455 15 0 50 81 64 149 11 50 13 114 8 268 -4 142 -2 229 7 295 16 112 16 294
1 403 -6 44 -15 181 -21 305 -11 227 -31 370 -53 370 -7 -1 -31 -15 -55 -31z"/>
<path d="M7063 5598 c-36 -26 -63 -67 -63 -97 0 -33 31 -88 57 -100 46 -21 89
-14 117 20 30 35 31 48 12 113 -26 87 -64 106 -123 64z"/>
<path d="M6552 5537 c-16 -17 -22 -36 -22 -71 0 -43 4 -53 36 -82 38 -36 58
-41 98 -22 42 18 55 47 46 103 -5 35 -15 55 -34 72 -37 31 -95 31 -124 0z"/>
<path d="M6795 4589 c-60 -10 -81 -31 -199 -204 -44 -65 -93 -126 -107 -134
-24 -14 -38 -11 -181 27 -85 23 -169 42 -187 42 -31 0 -33 -2 -26 -27 9 -38
42 -81 73 -97 15 -8 53 -19 85 -25 72 -13 147 -45 147 -63 0 -8 -16 -47 -36
-88 -28 -58 -54 -93 -118 -155 -76 -74 -84 -87 -115 -169 -65 -172 -85 -188
-203 -162 -232 49 -272 57 -284 52 -8 -3 -14 -20 -14 -39 0 -32 3 -35 78 -70
42 -20 96 -40 120 -46 54 -12 92 -36 92 -60 0 -11 -13 -48 -30 -83 -31 -65
-42 -158 -19 -158 6 0 38 18 71 40 33 22 65 40 72 40 6 0 31 30 55 65 l44 65
53 0 c54 0 334 -64 439 -100 33 -12 92 -28 130 -37 39 -8 82 -21 96 -29 51
-26 51 -33 -2 -128 -27 -49 -49 -95 -49 -102 0 -17 32 -34 63 -34 31 0 69 35
140 131 l56 76 83 -13 c46 -7 118 -19 162 -26 l79 -12 23 28 c13 15 24 30 24
34 0 4 -19 20 -42 35 -34 22 -54 27 -103 27 -43 0 -70 6 -94 21 -29 18 -33 24
-28 52 7 44 291 545 329 581 28 25 36 28 77 22 25 -4 87 -9 137 -13 90 -6 91
-5 124 24 l33 29 -74 13 c-41 7 -103 26 -137 43 -72 34 -70 23 -26 151 30 86
27 110 -18 115 -20 2 -39 -16 -115 -106 l-92 -110 -163 34 c-185 38 -303 70
-420 115 -121 47 -123 65 -27 231 27 48 58 112 69 144 23 65 23 64 13 63 -5
-1 -30 -5 -58 -10z m49 -565 c117 -23 387 -95 460 -123 24 -10 27 -15 21 -39
-12 -49 -53 -130 -93 -184 -22 -29 -81 -123 -132 -208 -105 -178 -123 -200
-161 -200 -68 0 -620 148 -682 183 -45 25 -45 26 29 157 64 115 168 271 249
375 l60 77 60 -7 c33 -3 118 -18 189 -31z"/>
<path d="M5066 3899 c-54 -59 -986 -1467 -986 -1489 0 -17 53 -67 110 -103 30
-19 958 -277 1270 -353 356 -87 731 -174 750 -174 11 0 20 10 25 27 17 69
-134 127 -641 247 -246 59 -522 140 -631 187 -32 14 -43 24 -43 40 l0 22 370
-7 370 -6 -7 32 c-3 18 -13 56 -22 83 l-16 50 -58 9 c-32 5 -146 4 -265 -1
-166 -7 -226 -6 -306 6 -103 15 -143 12 -296 -20 -35 -7 -99 -9 -179 -5 -120
6 -161 16 -161 37 0 6 100 178 223 382 123 205 244 411 270 458 26 48 78 129
116 180 96 130 228 343 236 380 9 38 2 45 -51 53 -39 6 -44 3 -78 -35z"/>
<path d="M16370 9530 c-22 -14 11 -178 41 -202 28 -24 46 -23 59 3 9 17 6 36
-21 102 -43 109 -49 116 -79 97z"/>
<path d="M16202 9408 c-19 -19 -15 -66 7 -78 26 -13 51 11 51 50 0 36 -33 53
-58 28z"/>
<path d="M15741 9391 c-19 -13 -17 -105 3 -137 39 -59 81 -37 73 38 -10 84
-40 122 -76 99z"/>
<path d="M15565 9332 c-7 -34 21 -171 40 -191 9 -9 23 -11 40 -7 27 7 28 8 22
67 -10 114 -84 209 -102 131z"/>
<path d="M3148 8619 c-23 -13 -22 -28 2 -59 25 -32 25 -58 1 -84 -22 -24 -18
-71 6 -80 9 -4 42 1 74 10 l58 16 45 -26 c50 -29 88 -33 105 -12 10 11 8 23
-9 56 l-21 41 36 40 c29 32 34 43 25 59 -14 27 -47 29 -108 6 l-54 -19 -64 31
c-71 35 -72 36 -96 21z"/>
<path d="M3922 8027 c-31 -33 -30 -100 0 -121 35 -25 100 -21 126 7 22 23 30
80 14 103 -26 39 -108 45 -140 11z"/>
<path d="M4048 7595 c-35 -24 -38 -29 -38 -75 0 -40 4 -52 26 -69 60 -47 169
-30 194 30 27 64 -17 121 -105 134 -33 5 -47 1 -77 -20z"/>
<path d="M4404 7272 c-23 -14 -54 -78 -54 -109 0 -47 42 -77 95 -69 51 8 75
36 75 88 0 64 -71 120 -116 90z"/>
<path d="M4776 6423 c-16 -141 -14 -136 -55 -129 -20 3 -48 8 -62 12 -34 8
-59 -18 -59 -61 0 -39 15 -52 90 -81 25 -9 50 -22 57 -28 6 -6 18 -48 26 -94
17 -96 34 -121 71 -104 23 10 35 36 50 104 5 22 17 31 65 49 90 32 90 59 -1
105 -56 28 -62 41 -77 148 -14 101 -32 136 -70 136 -27 0 -29 -2 -35 -57z"/>
<path d="M5176 5938 c-8 -13 -19 -42 -26 -65 -13 -50 -32 -63 -95 -63 -58 0
-85 -14 -85 -43 0 -35 19 -47 71 -47 57 0 79 -18 79 -64 0 -39 15 -56 51 -56
29 0 43 13 68 63 14 28 23 33 66 39 54 8 85 34 85 72 0 32 -19 46 -60 46 -48
0 -60 15 -60 72 0 37 -4 50 -19 58 -31 16 -59 12 -75 -12z"/>
<path d="M5508 5795 c-10 -21 -8 -36 11 -91 28 -77 23 -85 -59 -124 -59 -28
-65 -52 -19 -76 24 -12 45 -14 85 -9 58 7 50 12 124 -72 10 -13 28 -23 40 -23
30 0 63 37 56 63 -4 12 -9 40 -12 63 -6 40 -6 40 50 74 59 36 69 58 46 101
-14 24 -42 24 -109 -2 -54 -20 -54 -20 -74 0 -11 11 -32 41 -46 68 -20 37 -32
49 -53 51 -22 3 -30 -2 -40 -23z"/>
</g>
</svg>
