<?xml version="1.0" standalone="no"?>
<!DOCTYPE svg PUBLIC "-//W3C//DTD SVG 20010904//EN"
 "http://www.w3.org/TR/2001/REC-SVG-20010904/DTD/svg10.dtd">
<svg version="1.0" xmlns="http://www.w3.org/2000/svg"
 width="2400.000000pt" height="2401.000000pt" viewBox="0 0 2400.000000 2401.000000"
 preserveAspectRatio="xMidYMid meet">

<g transform="translate(0.000000,2401.000000) scale(0.100000,-0.100000)"
fill="#000000" stroke="none">
<path d="M2920 14657 l0 -9043 165 -1 165 -2 0 9045 0 9044 -165 0 -165 0 0
-9043z"/>
<path d="M3502 14658 l3 -9043 168 -1 167 -2 0 9044 0 9044 -170 0 -170 0 2
-9042z"/>
<path d="M4082 14658 l3 -9043 165 0 165 0 3 9043 2 9042 -170 0 -170 0 2
-9042z"/>
<path d="M4700 14656 l0 -9044 170 0 170 0 0 9044 0 9044 -170 0 -170 0 0
-9044z"/>
<path d="M5280 14655 l0 -9046 170 3 170 2 0 9043 0 9043 -170 0 -170 0 0
-9045z"/>
<path d="M5870 14657 l0 -9044 165 1 165 1 0 4167 0 4168 -25 0 -25 0 0 820 0
820 25 0 25 0 0 4055 0 4055 -165 0 -165 0 0 -9043z"/>
<path d="M6480 19645 l0 -4055 170 0 170 0 0 4055 0 4055 -170 0 -170 0 0
-4055z"/>
<path d="M7070 19645 l0 -4055 165 0 165 0 0 4055 0 4055 -165 0 -165 0 0
-4055z"/>
<path d="M7650 19645 l0 -4055 170 0 170 0 0 4055 0 4055 -170 0 -170 0 0
-4055z"/>
<path d="M8270 19645 l0 -4055 165 0 165 0 0 4055 0 4055 -165 0 -165 0 0
-4055z"/>
<path d="M8850 19645 l0 -4055 170 0 170 0 0 4055 0 4055 -170 0 -170 0 0
-4055z"/>
<path d="M9430 19645 l0 -4055 170 0 170 0 0 4055 0 4055 -170 0 -170 0 0
-4055z"/>
<path d="M10050 19645 l0 -4055 170 0 170 0 0 4055 0 4055 -170 0 -170 0 0
-4055z"/>
<path d="M10630 19645 l0 -4055 170 0 170 0 0 4055 0 4055 -170 0 -170 0 0
-4055z"/>
<path d="M11210 19645 l0 -4055 170 0 170 0 0 4055 0 4055 -170 0 -170 0 0
-4055z"/>
<path d="M11830 19645 l0 -4055 170 0 170 0 0 4055 0 4055 -170 0 -170 0 0
-4055z"/>
<path d="M12410 19645 l0 -4055 170 0 170 0 0 4055 0 4055 -170 0 -170 0 0
-4055z"/>
<path d="M13000 19645 l0 -4055 145 0 145 0 0 -820 0 -820 -145 0 -145 0 0
-4170 0 -4170 165 2 165 2 0 9043 0 9043 -165 0 -165 0 0 -4055z"/>
<path d="M13612 14658 l3 -9043 168 -2 167 -2 0 1427 0 1427 -30 80 c-66 178
-120 393 -156 625 -24 148 -27 652 -5 740 21 86 77 193 137 258 l54 60 0 785
c0 748 -1 788 -19 848 -98 319 -138 623 -128 973 8 293 43 524 116 756 l26 85
3 5013 2 5012 -170 0 -170 0 2 -9042z"/>
<path d="M14201 18983 c0 -3654 3 -4714 12 -4699 74 117 199 297 251 361 l66
80 0 4488 0 4487 -165 0 -165 0 1 -4717z"/>
<path d="M14780 19345 c0 -2395 2 -4355 4 -4355 3 0 31 23 63 51 32 28 106 88
166 132 l107 81 0 4223 0 4223 -170 0 -170 0 0 -4355z"/>
<path d="M15400 19560 l0 -4139 108 53 c59 29 133 63 165 75 l57 23 0 4064 0
4064 -165 0 -165 0 0 -4140z"/>
<path d="M15980 19680 c0 -2211 2 -4020 4 -4020 3 0 59 13 125 29 66 16 140
33 165 36 l46 7 0 3984 0 3984 -170 0 -170 0 0 -4020z"/>
<path d="M16560 19732 l0 -3967 143 8 c78 4 154 6 170 4 l27 -4 0 3964 0 3963
-170 0 -170 0 0 -3968z"/>
<path d="M17180 19725 l0 -3975 29 0 c16 0 91 -11 165 -25 74 -14 138 -25 141
-25 3 0 5 1800 5 4000 l0 4000 -170 0 -170 0 0 -3975z"/>
<path d="M17762 19664 l3 -4036 115 -43 c63 -23 137 -52 163 -64 27 -11 51
-21 53 -21 2 0 4 1845 4 4100 l0 4100 -170 0 -170 0 2 -4036z"/>
<path d="M18350 19533 l0 -4168 98 -62 c53 -34 127 -84 165 -112 l67 -50 0
4279 0 4280 -165 0 -165 0 0 -4167z"/>
<path d="M18960 19299 l0 -4400 93 -102 c51 -56 124 -142 162 -192 37 -49 72
-94 77 -99 4 -6 8 2061 8 4592 l0 4602 -170 0 -170 0 0 -4401z"/>
<path d="M19550 18884 l0 -4816 39 -87 c128 -285 212 -603 247 -931 20 -197
15 -552 -10 -644 -36 -128 -141 -279 -235 -336 l-40 -25 -1 -641 0 -640 35
-87 c221 -548 264 -1237 114 -1831 -31 -123 -95 -322 -130 -403 -18 -43 -19
-90 -19 -1438 l0 -1393 165 0 165 0 0 9044 0 9044 -165 0 -165 0 0 -4816z"/>
<path d="M20130 14655 l0 -9044 164 1 c156 1 165 3 170 22 3 11 5 4080 6 9043
l0 9023 -170 0 -170 0 0 -9045z"/>
<path d="M20750 14656 l0 -9044 165 0 165 1 0 9043 0 9044 -165 0 -165 0 0
-9044z"/>
<path d="M16665 14583 c-22 -2 -55 -6 -72 -9 l-33 -5 0 -991 0 -990 28 6 c15
4 91 10 170 13 l142 6 0 988 0 989 -97 -2 c-54 -1 -116 -3 -138 -5z"/>
<path d="M17180 13565 l0 -984 38 -6 c73 -12 241 -46 271 -55 l31 -9 0 973 0
973 -94 32 c-91 30 -208 61 -233 61 -10 0 -13 -203 -13 -985z"/>
<path d="M16214 14486 c-50 -18 -124 -48 -163 -66 l-71 -33 0 -1637 0 -1637
78 -36 c65 -29 244 -97 258 -97 2 0 4 135 4 299 l0 300 -26 28 c-104 111 -164
259 -164 408 0 136 57 285 147 385 l43 48 0 1036 c0 570 -3 1036 -7 1036 -5
-1 -49 -16 -99 -34z"/>
<path d="M17762 13385 l3 -946 120 -48 c66 -26 139 -58 162 -70 23 -11 45 -21
48 -21 3 0 4 401 3 892 l-3 892 -79 69 c-73 62 -234 177 -250 177 -3 0 -5
-425 -4 -945z"/>
<path d="M15645 14162 c-44 -38 -117 -108 -162 -155 l-83 -87 0 -1171 0 -1172
107 -109 c59 -59 133 -129 165 -154 l58 -45 0 1480 c0 815 -1 1481 -2 1481 -2
0 -39 -31 -83 -68z"/>
<path d="M6480 9782 l0 -4168 170 -2 170 -3 0 4171 0 4170 -170 0 -170 0 0
-4168z"/>
<path d="M7070 9782 l0 -4169 165 -1 165 -1 0 4170 0 4169 -165 0 -165 0 0
-4168z"/>
<path d="M7650 9781 l0 -4169 164 -1 c130 -1 165 1 169 12 3 8 6 1884 7 4170
l1 4157 -171 0 -170 0 0 -4169z"/>
<path d="M8270 9781 l0 -4169 163 1 162 2 3 4168 2 4167 -165 0 -165 0 0
-4169z"/>
<path d="M10730 10315 l0 -3635 -50 0 -50 0 0 -529 c0 -414 3 -530 13 -533 6
-3 83 -5 170 -6 l157 0 0 4169 0 4169 -120 0 -120 0 0 -3635z"/>
<path d="M11212 9783 l3 -4168 168 -1 167 -1 0 4169 0 4168 -170 0 -170 0 2
-4167z"/>
<path d="M11830 9780 l0 -4170 170 2 170 1 0 4169 0 4168 -170 0 -170 0 0
-4170z"/>
<path d="M12410 9792 c1 -2286 4 -4163 8 -4169 6 -9 53 -12 170 -11 l162 1 0
4169 0 4168 -170 0 -170 0 0 -4158z"/>
<path d="M18351 12965 l0 -810 68 -42 c37 -23 110 -74 162 -113 l94 -70 3 228
c1 129 -2 248 -8 275 -5 26 -10 146 -10 265 0 375 -55 610 -211 912 -110 212
-99 285 -98 -645z"/>
<path d="M15078 13321 c-122 -371 -122 -779 0 -1146 l37 -110 3 343 c1 188 1
496 0 685 l-3 342 -37 -114z"/>
<path d="M18960 11852 l0 -184 83 -97 c87 -100 146 -176 216 -275 l41 -59 0
361 0 362 -52 0 c-72 0 -176 24 -238 53 l-50 24 0 -185z"/>
<path d="M16560 11187 l0 -255 23 -6 c12 -4 88 -9 170 -13 l147 -6 0 255 0
256 -147 5 c-82 3 -158 8 -170 12 l-23 7 0 -255z"/>
<path d="M17180 11093 l0 -279 28 -16 c44 -27 128 -119 167 -183 57 -96 80
-182 79 -305 -1 -116 -21 -191 -76 -287 -35 -62 -113 -150 -162 -184 l-36 -24
0 -1012 c0 -557 4 -1013 8 -1013 17 0 170 49 250 80 l82 31 0 1680 0 1679 -37
16 c-52 22 -231 81 -270 89 l-33 7 0 -279z"/>
<path d="M14200 10793 l0 -439 71 10 c67 9 193 -1 242 -19 16 -7 17 7 17 210
l0 217 -66 81 c-36 45 -110 149 -165 231 l-99 148 0 -439z"/>
<path d="M17760 9585 c0 -850 3 -1545 8 -1545 15 0 184 132 256 201 l76 72 0
1266 0 1267 -67 65 c-73 71 -152 136 -227 188 l-46 32 0 -1546z"/>
<path d="M14780 10341 l0 -171 37 -47 c89 -116 118 -231 109 -428 -14 -305 45
-622 162 -875 l31 -65 0 746 1 747 -87 63 c-49 35 -117 89 -153 119 -36 30
-73 61 -82 69 -17 13 -18 4 -18 -158z"/>
<path d="M18351 9580 l0 -935 54 106 c130 257 194 531 195 833 0 299 -63 566
-198 832 l-51 99 0 -935z"/>
<path d="M15400 9212 l0 -868 93 -90 c79 -77 180 -161 225 -188 9 -6 12 182
12 927 l0 935 -57 23 c-32 12 -106 46 -165 76 l-108 53 0 -868z"/>
<path d="M15980 8876 l0 -964 103 -40 c99 -39 204 -72 226 -72 8 0 10 272 9
982 l-3 982 -107 22 c-60 12 -132 30 -162 38 -30 9 -57 16 -60 16 -3 0 -6
-434 -6 -964z"/>
<path d="M16560 8743 l0 -990 68 -6 c85 -9 236 -9 256 -1 14 6 16 102 16 990
l0 984 -72 0 c-40 0 -117 3 -170 7 l-98 6 0 -990z"/>
<path d="M14200 6786 l0 -1173 163 1 162 1 3 961 2 961 -49 56 c-72 82 -171
211 -226 295 -26 39 -50 72 -51 72 -2 0 -4 -528 -4 -1174z"/>
<path d="M19266 7879 c-50 -76 -162 -221 -236 -304 l-70 -80 2 -940 3 -940
163 -1 c110 -1 165 3 168 10 2 6 3 526 2 1155 l-3 1145 -29 -45z"/>
<path d="M14780 6453 l0 -840 170 0 170 -1 0 713 0 714 -62 42 c-62 41 -151
108 -235 177 l-43 34 0 -839z"/>
<path d="M18573 7157 c-51 -40 -122 -90 -157 -112 l-65 -40 2 -695 2 -695 163
-1 162 -1 0 808 c0 445 -3 809 -7 808 -5 0 -49 -33 -100 -72z"/>
<path d="M15400 6244 l0 -634 165 0 165 0 0 563 0 562 -62 24 c-35 13 -109 45
-165 72 l-103 48 0 -635z"/>
<path d="M18055 6843 c-16 -9 -88 -40 -160 -69 l-130 -53 -3 -554 -2 -553 170
-2 170 -2 0 625 c0 344 -3 625 -7 625 -5 -1 -21 -8 -38 -17z"/>
<path d="M8850 6147 l0 -533 165 -1 165 0 1 26 c0 14 2 254 5 534 l5 507 -170
0 -171 0 0 -533z"/>
<path d="M9430 6146 l0 -533 170 -1 170 0 0 534 0 534 -170 0 -170 0 0 -534z"/>
<path d="M10052 6148 l3 -533 164 0 164 0 4 533 5 532 -171 0 -171 0 2 -532z"/>
<path d="M15980 6135 l0 -522 170 1 170 0 0 487 0 486 -76 13 c-42 6 -118 22
-170 35 l-94 22 0 -522z"/>
<path d="M17450 6634 c-30 -8 -102 -22 -160 -32 l-105 -19 -3 -485 -2 -486
167 1 168 2 3 518 c1 284 -1 517 -5 516 -5 -1 -33 -8 -63 -15z"/>
<path d="M16560 6086 l0 -473 170 0 170 0 0 472 0 471 -170 2 -170 1 0 -473z"/>
<path d="M13340 2475 l0 -1385 145 0 145 0 0 593 c0 649 0 649 60 774 18 35
61 94 101 137 151 162 382 227 542 153 65 -30 111 -76 148 -149 63 -124 62
-118 66 -845 l4 -663 140 0 140 0 -4 703 c-3 683 -4 704 -25 784 -79 300 -261
455 -537 456 -97 1 -167 -15 -262 -58 -128 -59 -244 -153 -330 -269 l-43 -58
0 568 c1 474 3 573 15 594 28 49 26 50 -145 50 l-160 0 0 -1385z"/>
<path d="M18170 3804 c-77 -33 -122 -104 -123 -195 0 -71 35 -137 95 -177 36
-23 52 -27 113 -27 61 0 77 4 113 27 76 51 118 156 92 233 -16 50 -75 114
-125 136 -48 22 -118 24 -165 3z"/>
<path d="M11921 3685 c-248 -54 -439 -183 -576 -390 -153 -230 -225 -526 -225
-925 0 -335 46 -570 155 -791 55 -112 94 -168 174 -253 184 -191 402 -279 691
-279 155 0 268 25 382 85 95 49 218 161 289 262 l49 69 -102 69 c-57 37 -105
68 -108 68 -3 0 -20 -23 -39 -51 -77 -114 -218 -209 -361 -245 -94 -24 -232
-15 -326 20 -248 94 -445 396 -511 786 -22 131 -21 446 1 595 53 348 190 586
402 697 106 55 173 72 294 71 164 0 272 -44 380 -154 68 -71 120 -162 120
-213 0 -20 4 -36 9 -36 7 0 261 114 278 124 6 4 -65 130 -100 176 -116 155
-270 259 -455 306 -77 20 -118 24 -226 23 -72 0 -160 -7 -195 -14z"/>
<path d="M2710 3560 l0 -130 370 0 370 0 0 -1170 0 -1170 145 0 145 0 0 1170
0 1170 385 0 385 0 0 130 0 130 -900 0 -900 0 0 -130z"/>
<path d="M9835 3030 c-206 -23 -371 -105 -513 -254 -117 -124 -197 -283 -239
-478 -27 -125 -24 -429 5 -555 69 -299 221 -495 474 -612 281 -130 669 -113
901 38 40 26 99 73 132 104 l60 56 -79 79 -79 80 -65 -55 c-131 -111 -278
-158 -467 -150 -235 10 -411 110 -514 290 -55 96 -111 303 -111 408 0 19 15
19 679 19 l679 0 7 75 c13 137 -15 338 -66 481 -85 235 -267 399 -501 453
-103 24 -211 31 -303 21z m210 -235 c85 -23 149 -61 211 -128 88 -94 138 -217
150 -367 l7 -80 -529 2 -529 3 3 35 c7 65 53 205 89 270 45 81 151 189 221
224 110 56 258 72 377 41z"/>
<path d="M20455 3029 c-81 -12 -167 -42 -248 -87 -101 -56 -181 -129 -296
-272 l-20 -25 -1 173 0 172 -140 0 -140 0 0 -950 0 -950 139 0 140 0 3 603 c4
547 5 607 22 657 52 159 173 299 318 369 234 112 435 60 524 -134 56 -121 57
-137 61 -842 l4 -653 140 0 139 0 0 638 c0 655 -4 746 -41 882 -80 295 -320
462 -604 419z"/>
<path d="M7765 3020 c-195 -41 -317 -134 -402 -306 l-48 -97 -3 186 -2 187
-150 0 -150 0 0 -1300 0 -1300 155 0 155 0 0 470 0 471 83 -84 c89 -91 164
-139 282 -178 61 -21 88 -24 215 -24 138 1 149 2 227 32 250 95 430 306 517
604 34 118 46 217 46 372 0 502 -216 847 -595 952 -69 19 -270 28 -330 15z
m196 -250 c190 -36 331 -186 389 -415 47 -184 47 -455 1 -636 -54 -213 -185
-356 -366 -404 -73 -19 -223 -19 -291 -1 -296 79 -439 451 -359 937 29 174 92
305 194 402 113 108 264 149 432 117z"/>
<path d="M15953 3015 c-173 -31 -361 -123 -456 -223 l-28 -29 67 -86 c36 -48
68 -87 71 -87 3 0 30 20 61 45 62 48 172 102 267 132 87 26 332 24 427 -4 138
-41 229 -119 290 -250 30 -63 68 -220 68 -282 0 -32 -1 -33 -32 -27 -18 3
-146 9 -284 12 -212 6 -266 4 -355 -11 -354 -59 -602 -228 -690 -470 -31 -85
-32 -255 -2 -337 59 -160 201 -280 390 -329 166 -43 421 -33 582 22 107 37
231 135 293 232 l33 52 3 -143 3 -142 159 0 160 0 0 553 c0 303 -5 595 -10
647 -38 358 -188 585 -451 681 -153 56 -397 75 -566 44z m572 -1020 c55 -3
123 -8 151 -11 l51 -6 -5 -52 c-8 -103 -42 -230 -83 -315 -33 -68 -58 -102
-118 -161 -133 -132 -267 -183 -481 -184 -101 0 -138 4 -196 21 -129 41 -194
110 -213 231 -12 74 0 167 30 230 48 98 172 181 334 222 88 23 263 39 365 34
36 -2 110 -6 165 -9z"/>
<path d="M4870 2987 c0 -1 175 -434 389 -961 l390 -958 -26 -72 c-96 -271
-204 -383 -379 -394 -145 -9 -256 35 -299 119 -9 16 -19 29 -23 29 -4 0 -40
-53 -81 -117 l-74 -116 34 -28 c53 -44 169 -98 245 -114 89 -19 222 -19 302 0
176 42 319 166 412 360 36 75 559 1539 649 1818 37 115 90 317 105 405 l6 32
-150 0 -150 0 0 -29 c0 -46 -37 -226 -68 -331 -64 -216 -376 -1169 -381 -1165
-4 2 -139 346 -301 764 l-295 761 -152 0 c-84 0 -153 -1 -153 -3z"/>
<path d="M17660 2870 l0 -120 230 0 230 0 0 -715 0 -715 -245 0 -245 0 0 -115
0 -115 615 0 615 0 0 115 0 115 -220 0 -220 0 0 835 0 835 -380 0 -380 0 0
-120z"/>
</g>
</svg>
